<?xml version="1.0" standalone="no"?>
<!DOCTYPE svg PUBLIC "-//W3C//DTD SVG 20010904//EN"
 "http://www.w3.org/TR/2001/REC-SVG-20010904/DTD/svg10.dtd">
<svg version="1.0" xmlns="http://www.w3.org/2000/svg"
 width="1024.000000pt" height="1024.000000pt" viewBox="0 0 1024.000000 1024.000000"
 preserveAspectRatio="xMidYMid meet">
<metadata>
Created by potrace 1.14, written by Peter Selinger 2001-2017
</metadata>
<g transform="translate(0.000000,1024.000000) scale(0.100000,-0.100000)"
fill="#000000" stroke="none">
<path d="M5025 9503 c-242 -21 -848 -205 -1196 -363 -63 -28 -139 -61 -171
-72 l-56 -20 -69 65 c-148 143 -329 244 -528 295 -84 21 -271 20 -354 -2 -166
-45 -239 -85 -348 -194 -72 -73 -83 -80 -153 -100 -85 -24 -137 -62 -175 -125
-22 -39 -33 -88 -50 -230 -8 -63 -51 -112 -132 -149 -54 -24 -75 -28 -153 -28
-94 0 -118 -7 -158 -44 -55 -49 -52 71 -52 -2066 0 -1088 3 -1992 7 -2010 3
-19 24 -52 48 -76 l42 -44 204 0 c132 0 209 -4 216 -11 7 -7 7 -25 2 -52 -5
-23 -10 -487 -12 -1032 -2 -894 -4 -993 -19 -1025 -29 -63 -76 -118 -123 -145
-39 -24 -58 -27 -143 -30 -102 -2 -129 -10 -174 -53 -47 -43 -50 -84 -46 -612
3 -539 0 -515 73 -579 l36 -31 3090 0 c3079 0 3091 0 3119 20 16 11 38 35 49
54 19 31 21 49 21 218 0 102 3 314 7 472 l6 287 111 78 c119 84 143 93 291
106 100 9 165 41 211 105 36 50 44 80 44 160 0 74 73 208 146 268 35 29 41 30
137 31 122 2 165 12 199 48 62 65 59 10 59 1092 l-1 986 -23 45 c-35 69 -78
87 -236 104 -128 13 -134 15 -166 46 -56 55 -92 141 -105 254 -15 138 -42 177
-162 233 -56 26 -122 85 -187 167 -91 115 -96 141 -38 192 23 20 68 49 99 65
l57 29 333 0 c365 0 366 0 406 60 23 34 23 40 20 205 -3 156 -5 173 -26 206
-37 61 -63 72 -192 79 -63 4 -125 12 -137 18 -42 23 -90 92 -108 155 -26 93
-64 179 -93 211 -15 16 -47 38 -72 49 -44 21 -57 21 -480 18 -462 -3 -475 -4
-527 -52 -22 -21 -62 -104 -69 -143 -1 -12 -8 -49 -13 -83 -12 -75 -29 -103
-89 -143 -43 -28 -51 -30 -144 -30 -105 0 -136 -9 -174 -52 -12 -12 -25 -34
-30 -48 -4 -14 -7 -215 -6 -448 0 -409 1 -424 22 -466 31 -65 62 -76 209 -76
l120 0 36 -31 c67 -59 65 -43 65 -523 0 -290 -3 -437 -10 -441 -6 -4 -187 -9
-403 -12 -417 -6 -494 0 -520 38 -8 10 -16 17 -19 14 -3 -3 -41 24 -84 61 -46
39 -112 82 -159 104 -72 34 -274 100 -395 129 -147 34 -228 52 -330 72 -63 13
-122 29 -132 37 -15 12 -16 103 -17 1119 -1 784 2 1110 10 1119 9 11 18 10 48
-5 82 -42 146 -54 233 -42 93 13 146 39 202 102 42 46 82 125 91 179 14 85 65
142 181 204 121 64 182 142 192 248 2 26 9 51 13 54 12 7 11 191 -1 199 -15 9
-13 231 2 254 16 26 -4 313 -25 363 -15 36 -38 61 -180 196 l-77 74 0 116 c0
111 -2 120 -30 169 -35 62 -76 95 -157 128 -62 25 -81 35 -250 142 -55 34
-124 73 -154 86 -93 41 -237 68 -324 60z m158 -678 c54 -14 128 -40 165 -59
63 -32 254 -163 315 -216 l27 -24 0 -246 0 -247 -57 29 c-32 16 -83 32 -113
37 -30 4 -320 5 -645 2 l-590 -6 -110 -48 c-60 -26 -155 -73 -210 -104 -55
-31 -120 -67 -145 -81 -131 -74 -744 -537 -868 -655 -36 -36 -52 -43 -110 -53
-43 -7 -115 -33 -202 -74 -74 -34 -149 -66 -167 -71 l-31 -9 1 -451 2 -450 80
-77 c69 -67 187 -175 380 -350 65 -59 178 -165 285 -267 116 -110 345 -320
412 -376 30 -26 108 -78 173 -115 l119 -69 178 -3 178 -3 0 -240 0 -239 -239
0 -240 0 -95 44 c-52 24 -103 54 -113 65 -9 12 -25 21 -34 21 -9 0 -29 16 -43
35 -15 19 -35 35 -44 35 -9 0 -38 21 -63 48 -44 44 -80 77 -188 169 -78 68
-133 117 -182 163 -26 25 -68 63 -95 85 -26 22 -62 55 -78 73 -16 17 -34 32
-40 32 -6 0 -21 16 -34 35 -12 19 -27 35 -34 35 -6 0 -30 18 -52 40 -131 129
-218 210 -227 210 -5 0 -17 16 -26 35 -9 19 -25 37 -35 41 -10 3 -25 18 -33
34 -8 16 -25 41 -38 55 -12 14 -38 43 -57 66 -19 22 -41 47 -48 54 -7 8 -14
18 -15 22 -1 4 -7 7 -14 7 -6 -1 -9 4 -7 10 2 6 -17 45 -44 86 -26 41 -57 89
-67 107 -11 17 -38 60 -60 95 l-40 63 -5 1207 -5 1207 211 3 211 3 67 62 c80
76 177 124 305 154 144 33 167 24 466 -181 248 -170 307 -204 337 -195 13 4
115 51 228 105 322 154 536 236 760 294 313 81 456 90 643 41z m-1035 -1585
c-1 -143 -6 -127 -10 37 -2 61 0 106 4 100 4 -7 7 -68 6 -137z m-601 -352 c-3
-7 -5 -2 -5 12 0 14 2 19 5 13 2 -7 2 -19 0 -25z m0 -135 c-2 -21 -4 -6 -4 32
0 39 2 55 4 38 2 -18 2 -50 0 -70z m331 -417 c103 -101 229 -227 281 -279 l93
-96 -5 -248 c-5 -270 -14 -324 -63 -383 -21 -24 -33 -30 -66 -30 -37 0 -48 7
-124 79 -49 46 -108 91 -141 107 -32 16 -83 51 -113 79 -31 27 -73 65 -94 83
-36 32 -39 38 -54 130 -11 68 -16 174 -16 357 -1 235 1 263 18 295 23 45 66
90 84 90 7 0 97 -83 200 -184z m-786 127 c-3 -16 -7 -22 -10 -15 -4 13 4 42
11 42 2 0 2 -12 -1 -27z m11 -291 c4 -21 3 -31 -3 -27 -6 3 -10 20 -10 37 0
38 5 34 13 -10z m4757 -2 c0 -5 -7 -7 -15 -4 -8 4 -15 8 -15 10 0 2 7 4 15 4
8 0 15 -4 15 -10z m-5893 -422 c-2 -18 -4 -4 -4 32 0 36 2 50 4 33 2 -18 2
-48 0 -65z m1538 44 c-3 -3 -11 0 -18 7 -9 10 -8 11 6 5 10 -3 15 -9 12 -12z
m3922 -174 c-2 -13 -4 -3 -4 22 0 25 2 35 4 23 2 -13 2 -33 0 -45z m430 0 c-3
-8 -6 -5 -6 6 -1 11 2 17 5 13 3 -3 4 -12 1 -19z m20 -125 c-3 -10 -5 -4 -5
12 0 17 2 24 5 18 2 -7 2 -21 0 -30z m-450 -35 c-2 -13 -4 -3 -4 22 0 25 2 35
4 23 2 -13 2 -33 0 -45z m460 -10 c-3 -8 -6 -5 -6 6 -1 11 2 17 5 13 3 -3 4
-12 1 -19z m-5920 -190 c-2 -35 -3 -7 -3 62 0 69 1 97 3 63 2 -35 2 -91 0
-125z m470 -130 c-1 -51 -3 -12 -3 87 0 99 2 141 3 93 2 -48 2 -129 0 -180z
m4990 230 c-3 -8 -6 -5 -6 6 -1 11 2 17 5 13 3 -3 4 -12 1 -19z m58 -54 c20
-8 35 -17 32 -20 -3 -3 -19 2 -35 10 -17 9 -38 13 -46 10 -9 -3 -16 -1 -16 5
0 15 21 14 65 -5z m385 -161 c11 -10 20 -27 19 -38 0 -14 -2 -16 -6 -5 -3 8
-17 25 -30 38 -28 26 -13 30 17 5z m-3 -65 c-3 -8 -6 -5 -6 6 -1 11 2 17 5 13
3 -3 4 -12 1 -19z m52 -53 c0 -5 -6 1 -14 15 -8 14 -14 30 -14 35 0 6 6 -1 14
-15 8 -14 14 -29 14 -35z m-62 -57 c-3 -7 -5 -2 -5 12 0 14 2 19 5 13 2 -7 2
-19 0 -25z m-5420 -80 c-3 -8 -6 -5 -6 6 -1 11 2 17 5 13 3 -3 4 -12 1 -19z
m5588 -6 c-3 -3 -11 0 -18 7 -9 10 -8 11 6 5 10 -3 15 -9 12 -12z m-5632 1
c-7 -2 -21 -2 -30 0 -10 3 -4 5 12 5 17 0 24 -2 18 -5z m5947 -208 c7 -9 8
-15 2 -15 -5 0 -12 7 -16 15 -3 8 -4 15 -2 15 2 0 9 -7 16 -15z m-6373 -157
c-2 -24 -4 -5 -4 42 0 47 2 66 4 43 2 -24 2 -62 0 -85z m568 73 c-3 -3 -18 8
-33 23 l-27 29 32 -23 c18 -13 30 -26 28 -29z m5899 -111 c3 -14 3 -19 0 -12
-3 6 -10 10 -15 7 -5 -4 -6 1 -3 9 3 8 -6 41 -20 72 -14 31 -26 59 -25 63 1
10 57 -112 63 -139z m-5753 13 c10 -12 5 -11 -18 6 -18 12 -33 24 -33 27 0 9
37 -15 51 -33z m-709 -86 l3 -46 40 5 c30 4 36 3 25 -5 -8 -6 -30 -11 -47 -11
l-33 0 0 57 c0 67 8 67 12 0z m5885 11 c-3 -7 -5 -2 -5 12 0 14 2 19 5 13 2
-7 2 -19 0 -25z m602 -40 c0 -10 -3 -18 -8 -18 -5 0 -8 21 -8 48 0 41 1 43 7
17 4 -16 8 -38 9 -47z m-5574 -51 c22 -19 54 -46 70 -58 17 -13 110 -91 209
-174 203 -171 309 -252 381 -292 l50 -28 607 0 c569 0 608 1 625 18 16 15 18
41 21 205 l4 188 36 -4 c328 -31 701 -106 972 -194 133 -43 179 -68 262 -144
132 -119 86 -111 657 -117 l494 -6 88 24 c52 14 134 26 201 30 143 8 205 34
249 103 l29 46 0 200 c0 111 3 211 6 224 6 20 8 21 19 6 10 -15 44 -17 296
-18 185 -2 289 1 298 8 12 9 13 -16 7 -169 -4 -99 -16 -232 -26 -295 -10 -63
-21 -159 -25 -212 -7 -112 -44 -250 -102 -384 -72 -165 -84 -181 -177 -223
-71 -33 -132 -82 -147 -118 -9 -20 -112 -95 -161 -117 -87 -38 -153 -49 -288
-44 -133 4 -195 22 -249 71 -24 22 -101 170 -101 194 0 7 -4 13 -10 13 -5 0
-10 10 -10 23 0 12 -3 32 -6 45 -6 22 -8 22 -189 22 l-183 0 -7 -113 c-7 -105
-5 -168 11 -374 l6 -81 40 14 c22 8 55 14 72 14 17 1 65 7 106 15 136 25 149
26 95 9 -27 -8 -98 -21 -157 -28 -116 -15 -154 -31 -164 -71 -10 -42 2 -66 78
-156 40 -47 132 -154 203 -239 72 -85 151 -177 177 -205 l46 -50 4 -291 3
-292 -80 -6 c-44 -4 -259 -4 -477 0 -328 6 -398 10 -398 21 0 11 4 11 20 3 24
-13 383 -13 375 0 -3 5 0 10 6 12 6 2 0 15 -13 29 -13 14 -39 45 -58 68 -19
23 -43 51 -52 63 -9 11 -18 23 -20 26 -6 13 -174 162 -183 162 -2 0 -29 16
-60 35 -30 20 -63 38 -73 42 -9 3 -45 16 -79 29 -34 13 -100 33 -146 44 -47
11 -110 31 -141 45 l-56 25 0 343 c0 441 -7 482 -106 587 -144 154 -372 114
-463 -79 l-26 -56 -6 -580 c-3 -365 -9 -591 -16 -611 -30 -88 -81 -145 -160
-182 l-58 -26 -545 -2 c-533 -2 -920 4 -890 14 16 6 110 96 110 106 0 3 34 40
75 82 41 42 75 82 75 90 0 8 4 14 9 14 8 0 106 110 160 180 13 17 54 46 91 65
158 80 203 170 140 278 -15 25 -43 46 -93 72 -40 21 -93 53 -120 71 -26 19
-49 34 -52 34 -3 0 -40 24 -82 54 -43 29 -105 67 -138 84 -72 36 -128 100
-160 182 -23 60 -88 157 -147 221 -33 36 -90 79 -103 79 -4 0 -5 -28 -1 -62
19 -172 19 -194 2 -227 -9 -17 -31 -41 -49 -51 -30 -19 -52 -20 -322 -20 -161
0 -306 5 -326 10 -54 15 -110 70 -144 140 -29 61 -30 62 -36 34 -4 -16 -7 339
-8 789 -1 775 0 818 17 813 23 -6 146 -10 254 -8 73 2 86 4 82 17 -4 8 -14 15
-24 15 -13 0 -18 7 -17 20 1 19 2 19 27 -4 14 -12 43 -39 65 -59z m5572 -619
c-2 -18 -4 -4 -4 32 0 36 2 50 4 33 2 -18 2 -48 0 -65z m0 -125 c-2 -16 -4 -5
-4 22 0 28 2 40 4 28 2 -13 2 -35 0 -50z m0 -125 c-2 -13 -4 -3 -4 22 0 25 2
35 4 23 2 -13 2 -33 0 -45z m5 -538 c4 -67 2 -90 -3 -65 -8 39 -12 182 -5 174
2 -2 6 -51 8 -109z m-2 -177 c-5 -29 -19 -66 -32 -83 -25 -35 -101 -84 -119
-78 -6 2 10 15 37 28 51 27 104 96 104 136 0 23 10 57 15 52 2 -2 -1 -26 -5
-55z m-1235 -103 c3 -6 -1 -7 -9 -4 -18 7 -21 14 -7 14 6 0 13 -4 16 -10z m60
-38 c-3 -3 -11 0 -18 7 -9 10 -8 11 6 5 10 -3 15 -9 12 -12z m625 4 c0 -2 -7
-7 -16 -10 -8 -3 -12 -2 -9 4 6 10 25 14 25 6z m295 -27 c5 -5 -5 -4 -23 2
-17 6 -32 13 -32 16 0 7 43 -8 55 -18z m-362 -34 c-3 -9 -8 -14 -10 -11 -3 3
-2 9 2 15 9 16 15 13 8 -4z m-5346 -52 c-3 -10 -5 -2 -5 17 0 19 2 27 5 18 2
-10 2 -26 0 -35z m5307 2 c-39 -31 -58 -36 -24 -7 19 16 37 28 39 26 3 -2 -4
-11 -15 -19z m-5307 -77 c-3 -7 -5 -2 -5 12 0 14 2 19 5 13 2 -7 2 -19 0 -25z
m4947 16 c3 -8 2 -12 -4 -9 -6 3 -10 10 -10 16 0 14 7 11 14 -7z m-4834 -45
c-30 -5 -59 -14 -64 -19 -16 -16 -30 -12 -16 4 12 16 43 23 100 23 24 1 19 -2
-20 -8z m127 5 c-3 -3 -12 -4 -19 -1 -8 3 -5 6 6 6 11 1 17 -2 13 -5z m4788
-11 c-11 -3 -27 -10 -35 -17 -13 -10 -13 -9 -1 7 7 9 23 16 35 16 20 -1 20 -2
1 -6z m-5015 -33 c0 -5 -4 -10 -10 -10 -5 0 -10 5 -10 10 0 6 5 10 10 10 6 0
10 -4 10 -10z m1555 -120 c-3 -5 -16 -10 -28 -9 -20 1 -20 2 3 9 14 4 26 8 28
9 2 1 0 -3 -3 -9z m-1085 -35 c0 -5 -5 -3 -10 5 -5 8 -10 20 -10 25 0 6 5 3
10 -5 5 -8 10 -19 10 -25z m1030 19 c0 -7 -25 -29 -52 -44 -14 -8 -16 -7 -12
4 3 9 14 18 25 21 10 4 19 11 19 16 0 5 5 9 10 9 6 0 10 -3 10 -6z m-1005 -84
c10 -46 0 -36 -14 14 -5 22 -6 35 -2 30 5 -5 12 -25 16 -44z m896 -46 c-5 -16
-10 -21 -10 -12 -1 18 10 51 15 45 2 -1 -1 -16 -5 -33z m-884 -26 c-3 -7 -5
-2 -5 12 0 14 2 19 5 13 2 -7 2 -19 0 -25z m873 -98 c0 -81 0 -81 -22 -68 -20
10 -21 13 -5 16 14 3 17 15 17 68 0 35 2 64 5 64 3 0 5 -36 5 -80z m-1480 23
c0 -5 -55 -7 -122 -5 -224 4 -245 8 -60 10 100 1 182 -1 182 -5z m-373 -19
c-3 -3 -12 -4 -19 -1 -8 3 -5 6 6 6 11 1 17 -2 13 -5z m400 -16 c-3 -8 -6 -5
-6 6 -1 11 2 17 5 13 3 -3 4 -12 1 -19z m1046 15 c-7 -2 -21 -2 -30 0 -10 3
-4 5 12 5 17 0 24 -2 18 -5z m90 0 c-13 -2 -33 -2 -45 0 -13 2 -3 4 22 4 25 0
35 -2 23 -4z m54 1 c-3 -3 -12 -4 -19 -1 -8 3 -5 6 6 6 11 1 17 -2 13 -5z
m-232 -14 c-11 -5 -29 -8 -40 -8 -16 0 -15 2 5 8 34 11 60 11 35 0z m292 4
c-3 -3 -12 -4 -19 -1 -8 3 -5 6 6 6 11 1 17 -2 13 -5z m-1247 -344 l0 -310
-122 1 -123 2 103 8 c57 4 110 13 118 20 12 9 14 62 14 300 0 159 2 289 5 289
3 0 5 -139 5 -310z m-473 238 c-3 -7 -5 -2 -5 12 0 14 2 19 5 13 2 -7 2 -19 0
-25z m1219 5 c-14 -14 -29 -24 -32 -21 -5 5 43 48 54 48 2 0 -7 -12 -22 -27z
m-56 -61 c-12 -16 -32 -58 -45 -93 -17 -46 -24 -57 -26 -39 -1 24 -2 23 -10
-5 -7 -25 -8 -22 -5 18 4 51 -10 75 -17 30 -3 -18 -4 -12 -5 17 l-2 45 20 -25
c11 -14 20 -32 20 -40 0 -23 30 40 30 64 0 13 11 28 28 38 36 23 36 23 12 -10z
m3085 -132 c3 -5 1 -10 -4 -10 -6 0 -11 5 -11 10 0 6 2 10 4 10 3 0 8 -4 11
-10z m-3168 -132 c-3 -8 -6 -5 -6 6 -1 11 2 17 5 13 3 -3 4 -12 1 -19z m3251
-13 c-3 -3 -9 2 -12 12 -6 14 -5 15 5 6 7 -7 10 -15 7 -18z m16 -31 c3 -8 2
-12 -4 -9 -6 3 -10 10 -10 16 0 14 7 11 14 -7z m86 -64 c0 -5 -2 -10 -4 -10
-3 0 -8 5 -11 10 -3 6 -1 10 4 10 6 0 11 -4 11 -10z m-4433 -52 c-2 -13 -4 -5
-4 17 -1 22 1 32 4 23 2 -10 2 -28 0 -40z m85 -59 c95 4 85 -5 -14 -14 -77 -7
-78 -6 -78 17 0 18 2 20 10 8 7 -11 26 -14 82 -11z"/>
<path d="M2447 8028 c-10 -117 -9 -203 2 -231 9 -24 15 -25 114 -32 122 -8
198 0 229 25 20 16 22 27 24 148 3 180 12 172 -200 172 l-163 0 -6 -82z"/>
<path d="M0 55 c0 -52 1 -55 25 -55 24 0 25 3 25 55 0 52 -1 55 -25 55 -24 0
-25 -3 -25 -55z"/>
</g>
</svg>
